<?xml version="1.0" encoding="UTF-8"?>
<svg version="1.1" xmlns="http://www.w3.org/2000/svg" width="3543" height="2835">
<path d="M0,0 L50,0 L65,38 L84,86 L101,129 L120,177 L139,225 L136,191 L135,173 L135,0 L176,0 L176,295 L127,295 L115,266 L98,223 L57,120 L37,70 L41,114 L41,295 L0,295 Z M35,65 Z " fill="#1E64C8" transform="translate(1106,1832)"/>
<path d="M0,0 L49,0 L71,56 L98,124 L117,172 L134,215 L138,225 L135,190 L134,171 L134,0 L175,0 L175,295 L126,295 L114,266 L91,208 L52,110 L36,70 L40,113 L40,295 L0,295 Z " fill="#1E64C8" transform="translate(936,1417)"/>
<path d="M0,0 L9,1 L57,18 L105,35 L153,52 L201,69 L249,86 L297,103 L345,120 L358,125 L358,170 L349,168 L292,148 L250,133 L196,114 L154,99 L100,80 L58,65 L4,46 L-2,47 L-44,62 L-98,81 L-140,96 L-205,119 L-253,136 L-301,153 L-349,170 L-352,170 L-352,125 L-333,118 L-285,101 L-237,84 L-189,67 L-141,50 L-93,33 L-45,16 Z " fill="#1E64C8" transform="translate(1060,539)"/>
<path d="M0,0 L710,0 L710,43 L0,43 Z " fill="#1E64C8" transform="translate(708,1209)"/>
<path d="M0,0 L83,0 L103,3 L119,8 L132,15 L144,26 L151,36 L157,49 L161,67 L162,76 L162,98 L160,112 L155,128 L148,141 L136,154 L122,163 L112,168 L127,198 L138,221 L149,243 L160,266 L172,290 L173,295 L125,295 L117,279 L101,245 L86,212 L70,177 L70,175 L43,175 L43,295 L0,295 Z M43,36 L43,139 L75,139 L89,137 L101,132 L108,126 L114,116 L117,105 L118,97 L118,77 L115,62 L110,52 L105,46 L97,41 L88,38 L73,36 Z " fill="#1E64C8" transform="translate(1666,1417)"/>
<path d="M0,0 L15,0 L33,2 L50,6 L63,11 L64,12 L64,52 L44,44 L26,40 L8,39 L-11,41 L-23,45 L-33,52 L-40,61 L-46,74 L-50,90 L-53,113 L-54,129 L-54,182 L-52,210 L-48,232 L-44,244 L-39,253 L-34,259 L-26,264 L-10,268 L11,268 L32,265 L32,168 L-12,168 L-12,132 L74,132 L74,292 L62,297 L37,303 L16,306 L-17,306 L-35,303 L-50,298 L-61,292 L-73,281 L-80,271 L-87,257 L-93,236 L-97,210 L-99,180 L-99,130 L-97,103 L-93,78 L-87,57 L-78,38 L-71,29 L-65,22 L-54,14 L-40,7 L-26,3 L-13,1 Z " fill="#1E64C8" transform="translate(798,1826)"/>
<path d="M0,0 L43,0 L44,223 L47,238 L53,250 L61,257 L71,261 L77,262 L98,262 L110,259 L119,253 L125,245 L130,229 L131,221 L132,0 L175,0 L175,216 L173,236 L168,255 L160,271 L151,281 L144,287 L128,295 L112,299 L105,300 L69,300 L49,296 L37,291 L26,284 L17,275 L9,261 L4,247 L1,231 L0,220 Z " fill="#1E64C8" transform="translate(708,1417)"/>
<path d="M0,0 L626,0 L626,43 L0,43 Z " fill="#1E64C8" transform="translate(750,1126)"/>
<path d="M0,0 L624,0 L622,4 L583,43 L41,43 L0,2 Z " fill="#1E64C8" transform="translate(751,731)"/>
<path d="M0,0 L45,0 L68,94 L84,161 L92,203 L97,235 L99,228 L106,187 L112,159 L135,64 L150,1 L151,0 L194,0 L190,18 L166,113 L147,187 L120,294 L119,295 L75,295 L72,286 L48,191 L29,117 L0,2 Z " fill="#1E64C8" transform="translate(1249,1417)"/>
<path d="M0,0 L138,0 L138,36 L43,36 L43,125 L120,125 L120,161 L43,161 L43,258 L138,258 L138,295 L0,295 Z " fill="#1E64C8" transform="translate(921,1832)"/>
<path d="M0,0 L139,0 L139,36 L43,36 L43,125 L120,125 L120,161 L43,161 L43,259 L139,259 L139,295 L0,295 Z " fill="#1E64C8" transform="translate(2350,1417)"/>
<path d="M0,0 L139,0 L139,36 L43,36 L43,125 L120,125 L120,161 L43,161 L43,259 L139,259 L139,295 L0,295 Z " fill="#1E64C8" transform="translate(1480,1417)"/>
<path d="M0,0 L31,0 L47,3 L63,9 L64,10 L64,48 L60,47 L47,41 L27,37 L12,37 L-3,40 L-13,45 L-18,49 L-24,59 L-26,67 L-26,85 L-22,98 L-16,108 L-5,120 L9,132 L19,141 L30,150 L46,165 L56,177 L63,189 L68,204 L70,217 L70,238 L67,253 L62,266 L55,277 L44,288 L31,296 L19,301 L-1,305 L-34,305 L-52,302 L-67,297 L-70,295 L-70,256 L-64,258 L-53,263 L-36,267 L-27,268 L-13,268 L3,265 L13,260 L20,253 L25,242 L26,237 L26,222 L23,210 L18,200 L9,189 L-3,178 L-14,169 L-25,159 L-36,150 L-50,136 L-60,122 L-67,106 L-70,91 L-70,64 L-66,48 L-62,38 L-55,28 L-47,19 L-37,12 L-25,6 L-12,2 Z " fill="#1E64C8" transform="translate(1944,1412)"/>
<path d="M0,0 L170,0 L170,36 L106,36 L106,295 L63,295 L63,36 L0,36 Z " fill="#1E64C8" transform="translate(1319,1832)"/>
<path d="M0,0 L170,0 L170,36 L106,36 L106,295 L63,295 L63,36 L0,36 Z " fill="#1E64C8" transform="translate(2615,1417)"/>
<path d="M0,0 L170,0 L170,36 L106,36 L106,295 L64,295 L64,36 L0,36 Z " fill="#1E64C8" transform="translate(2143,1417)"/>
<path d="M0,0 L43,0 L43,295 L0,295 Z " fill="#1E64C8" transform="translate(2535,1417)"/>
<path d="M0,0 L43,0 L43,295 L0,295 Z " fill="#1E64C8" transform="translate(2062,1417)"/>
<path d="M0,0 L43,0 L43,295 L0,295 Z " fill="#1E64C8" transform="translate(1169,1417)"/>
<path d="M0,0 L43,0 L43,271 L0,271 Z " fill="#1E64C8" transform="translate(1291,814)"/>
<path d="M0,0 L43,0 L43,271 L0,271 Z " fill="#1E64C8" transform="translate(958,814)"/>
<path d="M0,0 L43,0 L43,271 L0,271 Z " fill="#1E64C8" transform="translate(875,814)"/>
<path d="M0,0 L43,0 L43,271 L0,271 Z " fill="#1E64C8" transform="translate(792,814)"/>
<path d="M0,0 L42,0 L42,271 L0,271 Z " fill="#1E64C8" transform="translate(1208,814)"/>
<path d="M0,0 L42,0 L42,271 L0,271 Z " fill="#1E64C8" transform="translate(1125,814)"/>
<path d="M0,0 L42,0 L42,271 L0,271 Z " fill="#1E64C8" transform="translate(1042,814)"/>
</svg>
